<svg xmlns="http://www.w3.org/2000/svg" width="85.913" height="81.199" viewBox="0 0 22.73117 21.484017"><g color="#000" font-weight="400" font-family="sans-serif" white-space="normal" image-rendering="optimizeSpeed"><path style="line-height:normal;font-variant-ligatures:normal;font-variant-position:normal;font-variant-caps:normal;font-variant-numeric:normal;font-variant-alternates:normal;font-feature-settings:normal;text-indent:0;text-align:start;text-decoration-line:none;text-decoration-style:solid;text-decoration-color:#000;text-transform:none;text-orientation:mixed;shape-padding:0;isolation:auto;mix-blend-mode:normal;marker:none" d="M1.247 6.904v10.552c0 .672-.007 1.194.05 1.702.057.507.196 1.113.68 1.597.485.484 1.09.624 1.598.68.507.056 1.03.049 1.7.049h8.056c.67 0 1.193.008 1.7-.049.509-.056 1.116-.196 1.6-.68.485-.484.622-1.09.678-1.597.056-.508.05-1.03.05-1.702v-1.342h1.343c.671 0 1.193.007 1.701-.05s1.113-.196 1.598-.68c.484-.485.623-1.09.68-1.598.056-.507.05-1.03.05-1.7V9.4c0-.672.006-1.192-.05-1.7-.057-.507-.196-1.115-.68-1.6-.485-.484-1.09-.62-1.598-.677-.508-.056-1.03-.051-1.701-.051h-.204c.154-.446.222-.904.206-1.343v-.002c-.001-.027 0-.054-.002-.08a1.184 1.184 0 0 0-.005-.046c-.035-1.179-.531-2.221-1.285-2.89C16.632.317 15.644 0 14.675 0c-.949 0-1.913.307-2.685.969C11.217.307 10.252 0 9.303 0c-.967 0-1.952.317-2.731 1.007-.02-.018-.04-.039-.06-.056a4.15 4.15 0 0 0-2.77-.95C2.776.021 1.8.362 1.05 1.074.427 1.666-.08 2.475.01 4.02.1 5.565.65 6.359 1.246 6.904zM17.36 8.058h1.342c.626 0 1.05.008 1.31.031.023.26.033.684.033 1.31v2.686c0 .627-.01 1.05-.033 1.31-.26.024-.684.034-1.31.034H17.36z" overflow="visible" fill="#ff0"/><path style="line-height:normal;font-variant-ligatures:normal;font-variant-position:normal;font-variant-caps:normal;font-variant-numeric:normal;font-variant-alternates:normal;font-feature-settings:normal;text-indent:0;text-align:start;text-decoration-line:none;text-decoration-style:solid;text-decoration-color:#000;text-transform:none;text-orientation:mixed;shape-padding:0;isolation:auto;mix-blend-mode:normal;marker:none" d="M3.801 2.686a1.51 1.51 0 0 1 .987.325c.254.213.452.502.492 1.107l.003.03a1.462 1.462 0 0 0 .13.475l.007.015c.018.035.038.07.059.105l.008.012c.654 1.031 2.235.723 2.454-.479v-.001a1.346 1.346 0 0 0 .022-.247c0-.559.16-.808.387-1.01.226-.2.582-.331.955-.331s.726.13.953.332c.227.201.39.452.391 1.011a1.343 1.343 0 0 0 .984 1.344h-1.002v-.002a1.342 1.342 0 0 0-1.333 1.37V9.72c-.174 1.631-2.564 1.584-2.675-.05v5.092c.02 1.774-2.587 1.814-2.69.123V6.714L3.93 6.63a1.343 1.343 0 0 0-.742-1.437c-.54-.394-.963-1.518-.289-2.17.2-.192.535-.329.902-.337zM14.675 2.687c.373 0 .728.13.955.332.227.201.388.452.388 1.011a1.343 1.343 0 0 0 .004.083 1.343 1.343 0 0 0 .002.051c.022.437-.043.705-.65 1.015a1.343 1.343 0 0 0-.282.195H12.35a1.343 1.343 0 0 0 .979-1.185 1.343 1.343 0 0 0 0-.001 1.343 1.343 0 0 0 .003-.16c0-.559.162-.808.388-1.01.227-.2.58-.331.954-.331z" overflow="visible" fill="#fff"/></g></svg>